<?xml version="1.0" standalone="no"?>
<!DOCTYPE svg PUBLIC "-//W3C//DTD SVG 20010904//EN"
 "http://www.w3.org/TR/2001/REC-SVG-20010904/DTD/svg10.dtd">
<svg version="1.0" xmlns="http://www.w3.org/2000/svg"
 width="99.000000pt" height="118.000000pt" viewBox="0 0 99.000000 118.000000"
 preserveAspectRatio="xMidYMid meet">

<g transform="translate(0.000000,118.000000) scale(0.100000,-0.100000)"
fill="#000000" stroke="none">
<path d="M413 1160 c-17 -10 -37 -28 -43 -39 -14 -27 -15 -1024 0 -1051 42
-79 174 -80 215 0 23 45 23 996 -1 1045 -28 60 -111 82 -171 45z"/>
<path d="M83 959 c-17 -5 -43 -23 -57 -40 l-26 -31 0 -274 c0 -306 2 -319 64
-348 43 -20 69 -20 112 0 62 29 64 42 64 348 l0 274 -25 31 c-24 27 -40 36
-85 46 -8 2 -29 -1 -47 -6z"/>
<path d="M785 956 c-16 -7 -39 -23 -50 -36 -19 -21 -20 -36 -20 -312 l0 -290
32 -29 c43 -38 77 -45 126 -28 78 27 78 29 78 348 0 314 -1 319 -66 347 -42
17 -61 17 -100 0z"/>
</g>
</svg>
